<svg width="13" height="13" viewBox="0 0 13 13" fill="none" xmlns="http://www.w3.org/2000/svg">
<path d="M11.581 0H0.48254C0.215635 0 0 0.215635 0 0.48254V11.581C0 11.8479 0.215635 12.0635 0.48254 12.0635H11.581C11.8479 12.0635 12.0635 11.8479 12.0635 11.581V0.48254C12.0635 0.215635 11.8479 0 11.581 0ZM10.1876 3.52103H9.22405C8.46857 3.52103 8.3223 3.87992 8.3223 4.4077V5.57032H10.1258L9.89056 7.3904H8.3223V12.0635H6.44191V7.3919H4.86913V5.57032H6.44191V4.22825C6.44191 2.67056 7.39341 1.82159 8.78373 1.82159C9.45024 1.82159 10.0217 1.87135 10.1891 1.89397V3.52103H10.1876Z" fill="white"/>
</svg>
