<svg width="13" height="13" viewBox="0 0 13 13" fill="none" xmlns="http://www.w3.org/2000/svg">
<path d="M6.03024 4.02031C4.92266 4.02031 4.0188 4.92417 4.0188 6.03175C4.0188 7.13932 4.92266 8.04318 6.03024 8.04318C7.13781 8.04318 8.04168 7.13932 8.04168 6.03175C8.04168 4.92417 7.13781 4.02031 6.03024 4.02031ZM12.063 6.03175C12.063 5.1988 12.0706 4.3734 12.0238 3.54197C11.977 2.57624 11.7567 1.71915 11.0505 1.01296C10.3428 0.305258 9.48726 0.0864593 8.52152 0.0396817C7.68858 -0.00709597 6.86318 0.00044883 6.03175 0.00044883C5.1988 0.00044883 4.3734 -0.00709597 3.54197 0.0396817C2.57624 0.0864593 1.71915 0.306767 1.01296 1.01296C0.305258 1.72066 0.0864593 2.57624 0.0396817 3.54197C-0.00709597 4.37491 0.00044883 5.20031 0.00044883 6.03175C0.00044883 6.86318 -0.00709597 7.69009 0.0396817 8.52152C0.0864593 9.48726 0.306767 10.3443 1.01296 11.0505C1.72066 11.7582 2.57624 11.977 3.54197 12.0238C4.37491 12.0706 5.20031 12.063 6.03175 12.063C6.86469 12.063 7.69009 12.0706 8.52152 12.0238C9.48726 11.977 10.3443 11.7567 11.0505 11.0505C11.7582 10.3428 11.977 9.48726 12.0238 8.52152C12.0721 7.69009 12.063 6.86469 12.063 6.03175ZM6.03024 9.12661C4.31757 9.12661 2.93537 7.74441 2.93537 6.03175C2.93537 4.31908 4.31757 2.93688 6.03024 2.93688C7.7429 2.93688 9.12511 4.31908 9.12511 6.03175C9.12511 7.74441 7.7429 9.12661 6.03024 9.12661ZM9.25186 3.53291C8.85198 3.53291 8.52907 3.21 8.52907 2.81012C8.52907 2.41025 8.85198 2.08733 9.25186 2.08733C9.65173 2.08733 9.97465 2.41025 9.97465 2.81012C9.97477 2.90508 9.95615 2.99912 9.91987 3.08687C9.88359 3.17461 9.83035 3.25434 9.76321 3.32148C9.69607 3.38862 9.61635 3.44186 9.5286 3.47814C9.44085 3.51442 9.34681 3.53303 9.25186 3.53291Z" fill="white"/>
</svg>
