<svg width="12" height="12" viewBox="0 0 12 12" fill="none" xmlns="http://www.w3.org/2000/svg">
<path d="M10.8297 11.7808C11.0956 11.7808 11.3206 11.6785 11.5046 11.474C11.6887 11.2694 11.7808 11.0342 11.7808 10.7683V0.920371C11.7808 0.654486 11.6887 0.43462 11.5046 0.260772C11.3206 0.086924 11.0956 0 10.8297 0H1.01241C0.726071 0 0.485752 0.086924 0.291451 0.260772C0.0971503 0.43462 0 0.654486 0 0.920371V10.7683C0 11.0342 0.102264 11.2694 0.30679 11.474C0.511317 11.6785 0.746524 11.7808 1.01241 11.7808H10.8297ZM2.85315 3.77352C2.58727 3.77352 2.37251 3.69171 2.20889 3.52809C2.04527 3.34402 1.96346 3.12926 1.96346 2.88383C1.96346 2.61795 2.05038 2.39808 2.22423 2.22423C2.39808 2.05038 2.61795 1.96346 2.88383 1.96346C3.14972 1.96346 3.36447 2.05038 3.52809 2.22423C3.69171 2.39808 3.77352 2.61795 3.77352 2.88383C3.77352 3.12926 3.6866 3.3389 3.51275 3.51275C3.3389 3.6866 3.11904 3.77352 2.85315 3.77352ZM6.35056 9.8173H4.66322V4.57118H6.35056V5.30748C6.75962 4.7348 7.27093 4.44846 7.88452 4.44846C8.45719 4.44846 8.92249 4.64276 9.28041 5.03136C9.63833 5.41997 9.8173 5.99264 9.8173 6.74939V9.8173H8.12995V6.93347C8.12995 6.17672 7.84361 5.79834 7.27093 5.79834C6.86188 5.79834 6.57554 6.00287 6.41192 6.41192C6.37102 6.49373 6.35056 6.6369 6.35056 6.84143V9.8173ZM3.65081 9.8173H1.96346V4.57118H3.65081V9.8173Z" fill="#F3F4F6"/>
</svg>
