<svg width="119" height="32" viewBox="0 0 119 32" fill="none" xmlns="http://www.w3.org/2000/svg">
<path d="M20.7055 3.3271L20.256 7.72075C20.2295 8.05091 19.8593 8.25408 19.5155 8.1271C18.0082 7.44139 15.6282 6.83186 13.1953 6.83186C11.4235 6.83186 9.96907 7.11123 9.96907 8.40646C9.96907 9.29535 11.0269 9.52393 12.164 9.82869L15.7869 10.8446C19.7271 11.9366 22.0542 13.7144 22.0542 17.143C22.0542 21.2573 18.3784 24.0763 12.5077 24.0763C9.6253 24.0763 7.19241 23.5938 5.39418 23.0604C4.12485 22.6795 3.30507 21.4858 3.46374 20.216L3.80752 17.5239C3.83396 17.1684 4.23063 16.9652 4.57441 17.1176C6.13463 17.8033 8.9113 18.6922 12.0317 18.6922C13.6977 18.6922 14.9671 18.3366 14.9671 17.27C14.9671 16.6096 14.4646 16.1525 13.0895 15.7969L9.59885 14.9081C6.58418 14.1208 3.17285 12.5208 3.17285 8.30488C3.17285 4.1398 7.08663 1.52393 12.878 1.52393C16.0777 1.52393 18.59 2.08266 20.3882 2.84456C20.5997 2.92075 20.7055 3.12393 20.7055 3.3271Z" fill="#031B56"/>
<path d="M36.2025 18.6917C36.2025 18.5648 36.0439 18.4632 35.9116 18.4886C35.1712 18.6664 34.2721 18.7933 33.373 18.7933C32.1301 18.7933 31.3367 18.2854 31.3367 16.7362V13.333C31.3367 13.206 31.4425 13.1044 31.5747 13.1044H35.3034C35.4356 13.1044 35.5414 13.0029 35.5414 12.8759V8.45683C35.5414 8.32985 35.4356 8.22826 35.3034 8.22826H31.3367C31.2045 8.22826 31.0987 8.12667 31.0987 7.99969V3.50445C31.0987 3.37747 30.993 3.27588 30.8607 3.27588H25.281C25.1487 3.27588 25.043 3.37747 25.043 3.50445V8.02508C25.043 8.15207 25.1487 8.25366 25.281 8.25366H30.1732C30.3847 8.25366 30.4905 8.50762 30.3319 8.63461L25.1487 13.0283C25.0959 13.0791 25.0694 13.1298 25.0694 13.206V17.7521C25.0694 22.3743 28.0047 23.9997 31.8656 23.9997C33.6374 23.9997 35.4356 23.6187 36.3612 23.2632C36.4405 23.2378 36.5199 23.1362 36.5199 23.0346L36.2025 18.6917Z" fill="#031B56"/>
<path d="M37.207 16C37.207 11.4032 40.2481 7.92383 44.5057 7.92383C46.5155 7.92383 47.7319 8.58415 48.5517 9.39684C48.6575 9.49843 48.8426 9.44764 48.8426 9.29526L48.8955 8.66034C48.9219 8.40637 49.1335 8.22859 49.3979 8.22859H54.8719C55.1364 8.22859 55.3744 8.43176 55.3744 8.71113V23.2381C55.3744 23.4921 55.1628 23.6953 54.8984 23.6953H49.3979C49.1599 23.6953 48.9484 23.5175 48.9219 23.2889L48.8426 22.6286C48.8426 22.4762 48.6575 22.4254 48.5517 22.527C47.7319 23.3397 46.5419 24 44.5057 24C40.2481 24.0508 37.207 20.5714 37.207 16ZM46.1717 13.1048C44.4528 13.1048 43.2893 14.273 43.2893 16C43.2893 17.7016 44.4528 18.8699 46.1717 18.8699C47.8377 18.8699 48.9748 17.7016 48.9748 16C49.0012 14.273 47.8641 13.1048 46.1717 13.1048Z" fill="#031B56"/>
<path d="M69.7075 8.25391H75.9484C76.1071 8.25391 76.2129 8.40629 76.16 8.55867L70.448 23.5174C70.3951 23.6444 70.2893 23.6952 70.1571 23.6952H62.832C62.6998 23.6952 62.594 23.619 62.5411 23.5174L56.8556 8.55867C56.8027 8.40629 56.9084 8.25391 57.0671 8.25391H63.308C63.4138 8.25391 63.4931 8.3047 63.5195 8.40629L66.3491 17.5745C66.3755 17.7015 66.5607 17.7015 66.6135 17.5745L69.4695 8.40629C69.5224 8.3301 69.6282 8.25391 69.7075 8.25391Z" fill="#031B56"/>
<path d="M89.7792 8.25391H96.0201C96.1788 8.25391 96.2846 8.40629 96.2317 8.55867L90.5461 23.5174C90.4932 23.6444 90.3875 23.6952 90.2552 23.6952H82.9301C82.7979 23.6952 82.6921 23.619 82.6392 23.5174L76.9537 8.55867C76.9008 8.40629 77.0066 8.25391 77.1653 8.25391H83.4061C83.5119 8.25391 83.5912 8.3047 83.6177 8.40629L86.4472 17.5745C86.4737 17.7015 86.6588 17.7015 86.7117 17.5745L89.5677 8.40629C89.5941 8.3301 89.6735 8.25391 89.7792 8.25391Z" fill="#031B56"/>
<path d="M109.56 8.40629L106.73 17.0666C106.704 17.1936 106.519 17.1936 106.466 17.0666L103.61 8.40629C103.583 8.3047 103.477 8.25391 103.398 8.25391H97.2365C97.0779 8.25391 96.9721 8.40629 97.025 8.55867L101.706 19.6825C101.785 19.8603 101.944 19.9618 102.155 19.9618H105.302C105.381 19.9618 105.461 20.0634 105.408 20.1396L103.583 23.9238C103.504 24.1015 103.398 24.3047 103.266 24.4571C102.605 25.346 101.706 25.5491 100.701 25.5491C100.013 25.5491 99.4579 25.3968 99.0348 25.219C98.8761 25.1682 98.7174 25.2444 98.6645 25.3968L97.8712 29.3841C97.8448 29.4857 97.8977 29.5872 98.0034 29.638C98.9025 30.1206 100.225 30.4761 101.917 30.4761C105.593 30.4761 107.761 28.8761 109.11 25.6253L116.144 8.58406C116.197 8.43168 116.091 8.2793 115.933 8.2793H109.771C109.665 8.25391 109.586 8.3301 109.56 8.40629Z" fill="#031B56"/>
</svg>
