<svg width="15" height="13" viewBox="0 0 15 13" fill="none" xmlns="http://www.w3.org/2000/svg">
<path fill-rule="evenodd" clip-rule="evenodd" d="M12.3347 0.960874C11.7879 0.369507 11.0064 0 10.1413 0C8.48295 0 7.13711 1.36362 7.13711 3.04534C7.13711 3.28421 7.16293 3.51573 7.21455 3.73875C4.71688 3.61159 2.50276 2.40064 1.01964 0.555807C0.760724 1.00726 0.612881 1.53098 0.612881 2.08872C0.612881 3.14468 1.14324 4.07695 1.95011 4.6231C1.45809 4.60841 0.99383 4.47004 0.58785 4.24354V4.28064C0.58785 5.75674 1.62392 6.98817 2.99987 7.26685C2.74799 7.33836 2.48203 7.3743 2.20786 7.3743C2.01426 7.3743 1.82535 7.35575 1.6423 7.32019C2.02482 8.52959 3.13402 9.41046 4.44935 9.43404C3.4211 10.2511 2.12455 10.7381 0.716918 10.7381C0.474426 10.7381 0.234671 10.7242 0 10.6964C1.3298 11.5591 2.91031 12.0635 4.60697 12.0635C10.1354 12.0635 13.1576 7.42378 13.1576 3.39901C13.1576 3.26643 13.1552 3.13424 13.1502 3.00437C13.7372 2.57496 14.2472 2.03886 14.6485 1.42817C14.1103 1.67013 13.5307 1.83401 12.9229 1.90745C13.5436 1.53098 14.02 0.934205 14.2445 0.223019C13.6633 0.571654 13.0211 0.825208 12.3347 0.960874Z" fill="white"/>
</svg>
